<svg id="Layer_1" enable-background="new 0 0 511.998 511.998" height="512" viewBox="0 0 511.998 511.998" width="512" xmlns="http://www.w3.org/2000/svg"><g><path d="m418.253 195.29h30v121.419h-30z"/><path d="m174.572 240.999h162.853v30h-162.853z" transform="matrix(.6 -.8 .8 .6 -102.377 307.359)"/><path d="m196.287 195.29h30v30.002h-30z"/><path d="m60.002 180.995h92.33v30h-92.33z"/><path d="m60.002 240.999h92.33v30h-92.33z"/><path d="m60.002 301.003h92.33v30h-92.33z"/><path d="m287.515 283.481h30v30.002h-30z"/><path d="m392.998 111.166v15c0 13.646-11.103 24.749-24.749 24.749s-24.748-11.102-24.748-24.749v-15h-343.501v289.666h343.501v-15c0-13.646 11.102-24.749 24.748-24.749s24.749 11.102 24.749 24.749v15h119v-289.666zm-77.408 259.666h-285.59v-229.666h285.59c5.177 18.149 19.511 32.47 37.659 37.649v154.368c-18.149 5.179-32.482 19.5-37.659 37.649zm166.408 0h-61.089c-5.177-18.149-19.511-32.47-37.66-37.649v-154.368c18.149-5.179 32.483-19.5 37.66-37.649h61.089z"/></g></svg>