<?xml version="1.0"?>
<svg xmlns="http://www.w3.org/2000/svg" xmlns:xlink="http://www.w3.org/1999/xlink" xmlns:svgjs="http://svgjs.com/svgjs" version="1.1" width="512" height="512" x="0" y="0" viewBox="0 0 64 64" style="enable-background:new 0 0 512 512" xml:space="preserve" class=""><g transform="matrix(1.32,0,0,1.32,-10.240000000000002,-10.240000000000002)"><path xmlns="http://www.w3.org/2000/svg" d="m16 10h32c3.314 0 6 2.686 6 6v32c0 3.314-2.686 6-6 6h-32c-3.314 0-6-2.686-6-6v-32c0-3.314 2.686-6 6-6z" fill="#b6472a" data-original="#ff7043" style="" class=""/><g xmlns="http://www.w3.org/2000/svg" fill="#012e52"><path d="m48 8h-32c-4.411 0-8 3.589-8 8v8c0 1.104.896 2 2 2s2-.896 2-2v-8c0-2.206 1.794-4 4-4h32c2.206 0 4 1.794 4 4v32c0 2.206-1.794 4-4 4h-32c-2.206 0-4-1.794-4-4v-8c0-1.104-.896-2-2-2s-2 .896-2 2v8c0 4.411 3.589 8 8 8h32c4.411 0 8-3.589 8-8v-32c0-4.411-3.589-8-8-8z" fill="#ffffff" data-original="#012e52" style="" class=""/><path d="m27.605 41.434c.389.378.892.566 1.395.566.521 0 1.042-.202 1.434-.605l6.382-6.562c.766-.756 1.188-1.764 1.188-2.838s-.422-2.082-1.16-2.811l-6.41-6.58c-.772-.791-2.038-.808-2.828-.037-.792.771-.808 2.037-.037 2.828l6.409 6.62-6.41 6.59c-.772.792-.755 2.058.037 2.829z" fill="#ffffff" data-original="#012e52" style="" class=""/></g></g></svg>
