<?xml version="1.0"?>
<svg xmlns="http://www.w3.org/2000/svg" xmlns:xlink="http://www.w3.org/1999/xlink" xmlns:svgjs="http://svgjs.com/svgjs" version="1.1" width="512" height="512" x="0" y="0" viewBox="0 0 551.13 551.13" style="enable-background:new 0 0 512 512" xml:space="preserve"><g><path xmlns="http://www.w3.org/2000/svg" d="m275.565 0c-151.944 0-275.565 123.621-275.565 275.565s123.621 275.565 275.565 275.565 275.565-123.621 275.565-275.565-123.621-275.565-275.565-275.565zm0 34.446c132.955 0 241.119 108.164 241.119 241.119 0 55.39-18.966 106.322-50.483 147.077-120.888-57.212-260.386-57.212-381.272 0-31.517-40.755-50.483-91.687-50.483-147.077 0-132.955 108.164-241.119 241.119-241.119zm-166.474 415.125c106.268-47.069 226.68-47.069 332.948 0-43.324 41.466-101.909 67.115-166.474 67.115s-123.15-25.65-166.474-67.115z" fill="#b6472a" data-original="#000000" style=""/><path xmlns="http://www.w3.org/2000/svg" d="m275.565 344.456c56.983 0 103.337-46.353 103.337-103.337s-46.354-103.337-103.337-103.337-103.337 46.353-103.337 103.337 46.354 103.337 103.337 103.337zm0-172.228c37.995 0 68.891 30.897 68.891 68.891 0 37.995-30.897 68.891-68.891 68.891-37.995 0-68.891-30.897-68.891-68.891s30.897-68.891 68.891-68.891z" fill="#b6472a" data-original="#000000" style=""/></g></svg>
