<?xml version="1.0" encoding="iso-8859-1"?>
<!-- Generator: Adobe Illustrator 19.0.0, SVG Export Plug-In . SVG Version: 6.00 Build 0)  -->
<svg version="1.1" id="Capa_1" xmlns="http://www.w3.org/2000/svg" xmlns:xlink="http://www.w3.org/1999/xlink" x="0px" y="0px"
	 viewBox="0 0 512 512" style="enable-background:new 0 0 512 512;" xml:space="preserve">
<g>
	<g>
		<path d="M504.485,91.027H7.515C3.365,91.027,0,94.392,0,98.542v288.564c0,4.15,3.365,7.515,7.515,7.515h124.996l1.612,19.506
			c0.498,6.033,7.927,9.041,12.478,5.001l25.758-22.864l29.162,18.326c5.147,3.233,11.987-0.937,11.487-6.982l-1.073-12.987h292.549
			c4.15,0,7.515-3.365,7.515-7.515V98.542C512,94.392,508.635,91.027,504.485,91.027z M151.295,106.057h17.033v97.19h-17.033
			V106.057z M184.36,218.276v49.096h-49.096v-49.096H184.36z M15.029,106.056h121.237v0.001v97.19h-8.517
			c-4.15,0-7.515,3.365-7.515,7.515v0.261l-59.716-19.905c-4.722-1.574-9.953-0.776-13.991,2.135c-4.039,2.91-6.45,7.62-6.45,12.598
			v13.426H15.029V106.056z M120.235,226.865v31.917l-64.468,21.49c-0.079,0.026-0.244,0.081-0.451-0.069
			c-0.208-0.15-0.208-0.324-0.208-0.407v-73.945c0-0.083,0-0.257,0.208-0.407c0.207-0.15,0.373-0.096,0.451-0.069L120.235,226.865z
			 M15.029,234.307h25.049v17.033H15.029V234.307z M15.029,379.591V266.37h25.049v13.426c0,10.412,10.543,18.031,20.441,14.734
			l58.176-19.392c-0.156,0.4-13.967,68.356-13.967,68.356c-1.204,5.947,5.104,10.885,10.591,8.279l13.135-6.242l2.815,34.061H15.029
			z M122.442,331.746l9.995-49.346h50.093l-11.968,59.091l-16.658-18.708c-2.221-2.495-5.823-3.223-8.838-1.791L122.442,331.746z
			 M175.584,380.539c-2.83-1.777-6.489-1.476-8.988,0.742l-18.734,16.628l-4.898-59.277l3.462-1.645l22.904,25.723
			c4.046,4.543,11.775,2.433,12.977-3.506l8.253-40.75l6.231,75.41L175.584,380.539z M199.389,258.782v-31.917l64.468-21.49
			c0.078-0.027,0.243-0.082,0.451,0.069c0.208,0.15,0.208,0.324,0.208,0.407v73.945c0,0.326-0.346,0.583-0.659,0.476
			L199.389,258.782z M496.971,379.591H210.693v0c0,0-8.593-103.833-8.638-104.077l57.049,19.016
			c9.898,3.299,20.441-4.322,20.441-14.734V266.37h217.425V379.591z M496.971,219.278h-63.958c-4.15,0-7.515,3.365-7.515,7.515
			s3.365,7.515,7.515,7.515h63.958v17.033H279.546v-17.033h117.062c4.15,0,7.515-3.365,7.515-7.515s-3.365-7.515-7.515-7.515
			H279.546v-13.426c0-4.872-2.403-9.629-6.331-12.511c-4.01-2.942-9.39-3.795-14.11-2.222l-59.716,19.905v-0.261
			c0-4.15-3.365-7.515-7.515-7.515h-8.517v-97.19h313.613V219.278z"/>
	</g>
</g>
<g>
	<g>
		<path d="M352.188,139.121H312.11c-4.15,0-7.515,3.365-7.515,7.515s3.365,7.515,7.515,7.515h40.078c4.15,0,7.515-3.365,7.515-7.515
			S356.338,139.121,352.188,139.121z"/>
	</g>
</g>
<g>
	<g>
		<path d="M440.36,139.121h-56.11c-4.15,0-7.515,3.365-7.515,7.515s3.365,7.515,7.515,7.515h56.11c4.15,0,7.515-3.365,7.515-7.515
			S444.51,139.121,440.36,139.121z"/>
	</g>
</g>
<g>
	<g>
		<path d="M440.36,179.2H312.11c-4.15,0-7.515,3.365-7.515,7.515c0,4.15,3.365,7.515,7.515,7.515h128.25
			c4.15,0,7.515-3.365,7.515-7.515C447.875,182.564,444.51,179.2,440.36,179.2z"/>
	</g>
</g>
<g>
</g>
<g>
</g>
<g>
</g>
<g>
</g>
<g>
</g>
<g>
</g>
<g>
</g>
<g>
</g>
<g>
</g>
<g>
</g>
<g>
</g>
<g>
</g>
<g>
</g>
<g>
</g>
<g>
</g>
</svg>
